<?xml version="1.0" standalone="no"?>
<!DOCTYPE svg PUBLIC "-//W3C//DTD SVG 20010904//EN"
 "http://www.w3.org/TR/2001/REC-SVG-20010904/DTD/svg10.dtd">
<svg version="1.0" xmlns="http://www.w3.org/2000/svg"
 width="512.000000pt" height="512.000000pt" viewBox="0 0 512.000000 512.000000"
 preserveAspectRatio="xMidYMid meet">
<metadata>
Created by potrace 1.14, written by Peter Selinger 2001-2017
</metadata>
<g transform="translate(0.000000,512.000000) scale(0.100000,-0.100000)"
fill="#000000" stroke="none">
<path d="M3611 5109 c-169 -28 -434 -155 -649 -311 -42 -30 -350 -383 -1167
-1336 -1009 -1176 -1114 -1302 -1158 -1386 -52 -100 -101 -241 -123 -356 -23
-113 -20 -298 4 -391 90 -338 395 -566 916 -684 102 -23 110 -23 204 -10 53 8
154 25 225 39 295 57 415 56 542 -4 91 -43 155 -106 242 -238 177 -265 366
-395 620 -425 193 -22 398 25 642 148 125 62 214 165 276 316 66 164 81 279
100 759 24 637 57 840 153 943 14 15 31 27 38 27 35 0 124 159 144 257 15 69
1 139 -41 199 -16 24 -34 44 -38 44 -4 0 -27 19 -50 43 -54 54 -94 136 -129
262 l-27 100 0 670 c0 745 1 729 -70 918 -46 122 -88 190 -170 273 -129 130
-284 176 -484 143z m-116 -972 c31 -17 48 -39 75 -91 l35 -69 3 -759 2 -760
169 4 c158 3 171 2 197 -18 15 -11 29 -25 31 -31 9 -25 -57 -48 -210 -73
l-158 -26 1 -761 1 -761 -61 -45 c-119 -90 -231 -108 -360 -58 -60 23 -167 97
-175 121 -2 8 -6 320 -7 692 -3 639 -4 678 -21 678 -9 0 -61 -7 -115 -15 -380
-57 -745 -193 -1036 -385 -126 -83 -201 -145 -344 -285 l-114 -110 -57 0 c-47
0 -72 7 -135 39 -91 47 -111 70 -101 122 17 95 45 130 1062 1334 969 1147
1013 1197 1073 1229 77 41 103 49 160 50 29 0 59 -7 85 -22z"/>
<path d="M2768 2911 c-170 -190 -333 -373 -363 -406 -30 -33 -55 -63 -55 -68
0 -32 137 -29 628 12 51 4 95 10 97 13 3 3 4 183 3 400 l-3 395 -307 -346z"/>
</g>
</svg>
